<svg width="65" height="32" viewBox="0 0 65 32" fill="none" xmlns="http://www.w3.org/2000/svg">
    <path d="M39.1352 7.92773H35.8428V10.4917H39.1352V7.92773Z" fill="white"/>
    <path d="M38.0877 11.4668H34.8477L34.8919 15.5419C34.9066 17.3478 34.8899 18.9344 34.5946 20.3003C34.5009 20.733 34.3596 21.3398 33.8688 21.7373C33.522 22.0178 32.9763 21.948 32.5625 21.948V25.2328H32.7073C32.8927 25.2328 32.9008 25.2357 32.9701 25.2328C33.1985 25.2196 33.4257 25.1906 33.6499 25.1458C33.7396 25.1271 33.9171 25.0826 34.0048 25.0574C34.1226 25.0235 34.3536 24.941 34.4708 24.9032C35.2317 24.6659 35.9114 24.2239 36.4346 23.6263C36.9526 23.0363 37.3415 22.346 37.5769 21.5991C37.9766 20.2777 38.1616 18.3393 38.132 15.7838L38.0877 11.4668Z" fill="white"/>
    <path d="M14.8143 11.4668H11.5743L11.6191 15.5419C11.6332 17.3478 11.6165 18.9344 11.3212 20.3003C11.2275 20.733 11.0862 21.3398 10.5954 21.7373C10.2485 22.0178 9.70285 21.948 9.28906 21.948V25.2328H9.43257C9.62349 25.2328 9.63064 25.2394 9.69693 25.2328C9.92056 25.2088 10.2084 25.1803 10.3764 25.1458C10.4662 25.1271 10.6436 25.0826 10.7313 25.0574C10.8492 25.0235 11.0808 24.941 11.1973 24.9032C11.9582 24.6659 12.638 24.2239 13.1612 23.6263C13.6791 23.0363 14.0681 22.346 14.3034 21.5991C14.7032 20.2777 14.8882 18.3393 14.8585 15.7838L14.8143 11.4668Z" fill="white"/>
    <path d="M8.95342 15.4681V15.4435L8.9561 11.4668H4.22629C3.03781 11.4668 2.05646 11.7717 1.28222 12.3814C0.427852 13.0447 0.000446376 13.9527 0 15.1052V18.2272H5.67657C5.63705 18.9218 5.55527 19.6134 5.43166 20.2983C5.33281 20.8542 5.37952 21.3158 4.69365 21.7373C3.81861 22.275 0.413791 22.0776 0 22.0776V25.2328C0 25.2328 3.46859 25.2342 3.52565 25.2328C3.71322 25.2286 3.7256 25.235 3.79337 25.2328C4.02236 25.2209 4.25012 25.1918 4.4747 25.1458C4.56442 25.1272 4.74186 25.0826 4.82957 25.0574C4.94741 25.0235 5.17908 24.941 5.29559 24.9032C6.05647 24.6659 6.73623 24.2239 7.25942 23.6263C7.77736 23.0363 8.16632 22.346 8.4017 21.5991C8.66224 20.7378 8.83133 19.6138 8.90896 18.2272H8.90923L8.90927 18.2215C8.95078 17.4829 8.96661 16.6703 8.95677 15.7838L8.95342 15.4681ZM5.9685 15.3239H2.92466C2.92466 14.8074 3.0983 14.4233 3.44558 14.1714C3.85616 13.9467 4.31789 13.8302 4.78672 13.833H5.9685V15.3239Z" fill="white"/>
    <path d="M21.7261 19.7015C20.7656 18.5751 20.7156 17.7021 20.7156 15.3233V11.4688H17.4727V15.3232C17.4727 18.862 18.1017 20.4572 19.3739 22.0139C20.5724 23.4822 22.2662 24.4222 24.4552 24.8341C25.8459 25.098 28.2572 25.23 31.6892 25.2303V21.9481C29.337 21.9481 27.4361 21.8599 25.9865 21.6836C24.0187 21.2575 22.5368 20.6523 21.7261 19.7015Z" fill="white"/>
    <path d="M28.4348 17.9123V21.106H31.6748V15.324H27.6583C27.6583 15.14 27.6875 14.6936 27.699 14.1485C27.7193 13.1875 27.8397 12.9279 28.0688 12.3726C28.1623 12.1587 28.2831 11.9575 28.4282 11.7741L28.5901 11.5906L28.6957 11.4649C28.7575 11.4013 28.8228 11.3399 28.8901 11.2805C28.988 11.2146 29.0806 11.1414 29.1673 11.0615C29.2806 10.9871 29.3992 10.9209 29.5221 10.8634C29.5835 10.8298 29.6469 10.7998 29.7119 10.7736C29.9457 10.6901 30.3664 10.6375 30.7588 10.6049L31.6748 10.555V8C30.5204 8 29.581 8.12474 28.8566 8.37421C28.7841 8.3983 28.7168 8.421 28.6518 8.44308L28.6519 8.44297C27.6563 8.68166 25.9992 9.71241 24.9942 11.7962C24.6851 12.4372 24.5538 13.3977 24.4995 14.2144C24.4763 14.4258 24.4641 14.6382 24.4629 14.8508L24.5803 17.9123L28.4348 17.9123Z" fill="white"/>
    <path d="M61.259 8.62346C60.799 8.8541 60.1516 9.2097 59.2932 9.74609C58.6906 10.1223 58.1844 10.4799 57.8061 10.7624C58.0659 12.2798 58.1917 13.99 58.1917 15.8571C58.1917 23.762 55.9902 28.7617 51.3809 28.7617C47.2839 28.7617 44.621 24.1901 44.621 16.1429C44.621 7.71419 47.4888 3.23829 51.4325 3.23829C53.48 3.23829 55.0334 4.20405 56.1308 5.9322C56.5868 5.59388 57.2544 5.07677 57.8851 4.50449C58.255 4.17904 58.5831 3.80958 58.862 3.40445C57.1599 1.2097 54.7763 0 51.6883 0C44.9283 0 40.9766 5.86574 40.9766 16.2466C41.079 26.4845 44.621 32 51.1252 32C58.4991 32 62.0873 26.6255 62.0873 16.1017C62.0873 13.2961 61.8134 10.783 61.259 8.62346Z" fill="white"/>
    <path d="M64.1601 3.95317C64.0877 4.33361 63.5703 5.10438 62.957 5.67201C62.4084 6.17675 61.1912 6.63594 59.518 7.34775C58.7209 7.68668 57.8909 8.06115 57.1178 8.48363C56.8401 8.63435 56.57 8.79137 56.3111 8.95554C56.302 8.96246 56.2922 8.96869 56.2818 8.97548C56.2326 9.00534 56.182 9.03764 56.1333 9.06944C56.0469 9.12438 55.9624 9.18008 55.8807 9.23917C55.3914 9.58062 54.9337 9.96462 54.513 10.3866C54.9156 9.78974 55.5214 9.08718 56.1866 8.37452C56.237 8.3213 56.2894 8.26507 56.3404 8.2119C56.3512 8.20067 56.3611 8.19255 56.3706 8.18123C56.5439 7.99789 56.7197 7.81475 56.8954 7.63287C57.6228 6.88246 58.3535 6.16022 58.9075 5.58555C59.2003 5.29404 59.476 4.9861 59.7333 4.66327C60.2628 3.94861 60.1869 3.07219 60.1029 2.63748C60.1028 2.63509 60.1021 2.63276 60.101 2.63064C60.0998 2.62851 60.0983 2.62663 60.0964 2.62511C60.0946 2.62359 60.0924 2.62247 60.0901 2.6218C60.0878 2.62113 60.0853 2.62093 60.0829 2.62122C60.0806 2.62151 60.0782 2.62228 60.0761 2.62348C60.0741 2.62468 60.0722 2.62629 60.0708 2.62821C60.0693 2.63013 60.0683 2.63232 60.0677 2.63464C60.0672 2.63697 60.0671 2.63939 60.0675 2.64176C60.09 3.22192 59.9315 3.79483 59.6138 4.28226C59.4496 4.53092 59.1265 4.84043 58.7065 5.19711C58.1287 5.68823 57.3674 6.2694 56.5808 6.90632C56.5413 6.93882 56.5011 6.97127 56.461 7.00372C56.4516 7.01252 56.4419 7.01939 56.4313 7.02809C56.3824 7.06939 56.3324 7.11059 56.2804 7.15228C56.256 7.17262 56.2347 7.19255 56.2104 7.21163C56.1861 7.23133 56.1617 7.25104 56.1364 7.27573C56.1121 7.29481 56.0851 7.31684 56.0605 7.33907C55.7805 7.56882 55.5015 7.8107 55.2314 8.05641C55.2301 8.05642 55.2288 8.0569 55.2279 8.05775C55.2269 8.05861 55.2262 8.05978 55.2261 8.06106C55.175 8.10662 55.1233 8.15341 55.0714 8.20208C55.0568 8.21555 55.0417 8.22771 55.0288 8.24196C54.6637 8.57676 54.3167 8.93063 53.9894 9.30207C53.5808 9.77375 53.2208 10.2849 52.9149 10.8278C52.9135 10.8283 52.9122 10.8292 52.9113 10.8303C52.9103 10.8315 52.9097 10.8329 52.9095 10.8344C52.8988 10.8519 52.8885 10.874 52.8785 10.8916C52.7957 11.038 52.7203 11.1838 52.6481 11.3285C52.3712 11.8836 52.1422 12.4611 51.9638 13.0547C51.7862 13.0994 51.6152 13.1666 51.4549 13.2545C50.8001 13.6147 48.7359 15.2979 47.9916 16.1206C47.5253 16.6362 46.8513 16.9963 46.413 17.1935C46.3089 17.2402 46.2182 17.2775 46.1468 17.3059C46.1245 17.3159 46.1045 17.3303 46.088 17.3483C46.0716 17.3663 46.0591 17.3875 46.0513 17.4105C46.0435 17.4335 46.0405 17.4579 46.0427 17.4821C46.0448 17.5063 46.052 17.5298 46.0637 17.5511C46.1629 17.7355 46.2799 17.9098 46.413 18.0718C46.6055 18.3132 46.8477 18.5112 47.1233 18.6524C47.8904 19.0246 49.2057 18.6651 50.0746 18.5494C50.9429 18.4337 51.4789 18.5987 51.7158 18.9759C52.2231 19.7834 51.3835 21.8811 49.8663 22.604C49.4252 22.8137 47.934 23.2904 46.9654 23.6446C46.8143 23.6999 46.5284 23.802 46.3012 23.8797C46.4054 24.3031 46.7344 24.9247 46.9717 25.2995C48.0716 27.0377 49.5049 28.0351 51.4071 28.0351C52.8468 28.0351 54.0996 27.412 54.9935 26.4707C55.6278 25.783 56.0792 24.9489 56.3065 24.0442C56.7512 22.3103 56.5259 21.1984 56.3764 20.4063C56.235 19.6603 56.0153 18.9311 55.7209 18.2305C55.2114 16.9474 54.7648 16.2994 54.2488 15.4135C53.965 14.9277 53.8427 14.776 54.1136 14.5492C54.2283 14.4531 54.3494 14.541 54.4793 14.5612C55.0205 14.6439 55.5793 14.6781 56.0761 14.3722C56.2269 14.2732 56.3596 14.1495 56.4687 14.0064C56.6208 13.8162 56.7513 13.6027 56.8771 13.422C56.9584 13.3057 56.9579 13.2078 56.818 13.1345C56.7104 13.0782 56.5927 13.0226 56.4687 12.9721C55.914 12.7452 55.2242 12.6094 54.6771 12.8691C54.3723 13.0138 54.1757 13.1736 53.9779 13.3031C53.945 13.3247 53.9116 13.3441 53.8781 13.3638C54.5043 12.5297 55.1865 11.7384 55.92 10.9955C55.9415 10.973 55.9636 10.9506 55.9908 10.9261C56.0376 10.8796 56.09 10.8316 56.1432 10.7824C56.1538 10.7736 56.1637 10.7649 56.173 10.7555C56.495 10.4708 56.8312 10.2024 57.1805 9.95147C57.9206 9.41242 58.803 8.84612 59.6701 8.30973C61.2398 7.33789 62.3182 6.72382 62.8613 6.27443C63.6149 5.64958 64.1865 4.43799 64.2004 3.95871C64.2012 3.9534 64.1998 3.94801 64.1965 3.94373C64.1932 3.93946 64.1884 3.93664 64.1831 3.93591C64.1804 3.93555 64.1777 3.9357 64.1751 3.93637C64.1725 3.93704 64.1701 3.93822 64.168 3.93982C64.1637 3.94306 64.1608 3.94786 64.1601 3.95317Z" fill="white"/>
</svg>
