<svg width="10" height="16" viewBox="0 0 10 16" fill="none" xmlns="http://www.w3.org/2000/svg">
<path d="M1.37136e-07 4.5C1.45043e-07 3.83696 0.263392 3.20107 0.732233 2.73223C1.20107 2.26339 1.83696 2 2.5 2L3.333 2L3.335 0.833C3.335 0.612075 3.42276 0.400198 3.57898 0.24398C3.7352 0.0877629 3.94708 4.70684e-08 4.168 4.97029e-08L5.835 6.95817e-08C5.94448 -0.000131536 6.0529 0.0213185 6.15408 0.0631219C6.25526 0.104925 6.34721 0.166262 6.42467 0.243626C6.50212 0.32099 6.56357 0.412865 6.6055 0.513994C6.64742 0.615124 6.669 0.723525 6.669 0.833L6.666 2L7.5 2C8.16304 2 8.79893 2.26339 9.26777 2.73223C9.73661 3.20107 10 3.83696 10 4.5L10 13.5C10 14.163 9.73661 14.7989 9.26777 15.2678C8.79893 15.7366 8.16304 16 7.5 16L2.5 16C1.83696 16 1.20107 15.7366 0.732233 15.2678C0.263392 14.7989 2.19055e-08 14.163 2.98122e-08 13.5L1.37136e-07 4.5ZM0.946 4.25L0.946 13.5C0.946 14.15 1.441 14.905 2.076 14.992L2.196 15L7.691 15C8.338 15 8.871 14.508 8.935 13.878L8.941 13.75L8.941 4.25C8.94089 3.94071 8.82613 3.64245 8.61889 3.41286C8.41165 3.18328 8.12666 3.03867 7.819 3.007L7.691 3L2.196 3C1.88654 2.99986 1.58803 3.11451 1.35823 3.32177C1.12844 3.52903 0.983689 3.81417 0.952 4.122L0.946 4.25ZM1.948 13.166L1.948 8.836C1.948 8.41 2.268 8.058 2.679 8.006L2.784 8L7.11 8C7.31355 7.9996 7.51024 8.07357 7.66308 8.208C7.81593 8.34243 7.9144 8.52806 7.94 8.73L7.946 8.836L7.946 13.166C7.94618 13.3695 7.87214 13.5661 7.73775 13.7189C7.60336 13.8717 7.41785 13.9702 7.216 13.996L7.109 14L2.784 14C2.358 14 2.006 13.681 1.954 13.27L1.948 13.166Z" fill="#ABABAB"/>
</svg>
