<svg width="24" height="24" viewBox="0 0 24 24" fill="none" xmlns="http://www.w3.org/2000/svg">
<path d="M2.49951 9.6C2.49951 4.43051 6.59047 0.25 11.6245 0.25C16.6586 0.25 20.7495 4.43051 20.7495 9.6C20.7495 12.8066 19.414 15.5538 17.5797 17.9066C15.7928 20.1985 13.5448 22.101 11.6245 23.6767C9.70427 22.101 7.45621 20.1985 5.66933 17.9066C3.835 15.5538 2.49951 12.8066 2.49951 9.6Z" fill="#63B993" stroke="white" stroke-width="0.5"/>
<path d="M14.833 8.62097C14.7427 8.62097 14.6536 8.62616 14.5659 8.63594L14.1964 7.40227L15.2332 5.95325C15.3298 5.81821 15.3434 5.63992 15.2682 5.49162C15.1931 5.34332 15.042 5.25 14.877 5.25H13.1411C12.8984 5.25 12.7017 5.44858 12.7017 5.69355C12.7017 5.93852 12.8984 6.1371 13.1411 6.1371H14.0175L13.5414 6.80242H12.438C11.7075 6.80242 10.9937 7.00849 10.3737 7.39837C10.3103 7.43822 10.2486 7.48025 10.1878 7.52352L9.55388 6.58065H10.1089C10.3516 6.58065 10.5483 6.38207 10.5483 6.1371C10.5483 5.89213 10.3516 5.69355 10.1089 5.69355H8.72461C8.5619 5.69355 8.41251 5.7843 8.33631 5.92941C8.26011 6.07451 8.2696 6.25025 8.36096 6.38615L9.52584 8.1188C9.36245 8.30352 9.21656 8.50387 9.08993 8.71728C8.87622 8.65466 8.65045 8.62097 8.41699 8.62097C7.08426 8.62097 6 9.71533 6 11.0605C6 12.4056 7.08426 13.5 8.41699 13.5C9.74972 13.5 10.834 12.4056 10.834 11.0605C10.834 10.2687 10.4582 9.56395 9.87738 9.11801C10.4259 8.24116 11.3994 7.68952 12.438 7.68952H13.3642L13.7247 8.89302C12.948 9.29924 12.416 10.1183 12.416 11.0605C12.416 12.4056 13.5003 13.5 14.833 13.5C15.2756 13.5 15.7086 13.378 16.0853 13.1474C16.2928 13.0203 16.3589 12.7475 16.2331 12.5381C16.1072 12.3287 15.8369 12.2618 15.6294 12.3889C15.3901 12.5355 15.1148 12.6129 14.833 12.6129C13.9849 12.6129 13.2949 11.9165 13.2949 11.0605C13.2949 10.5202 13.57 10.0437 13.986 9.76554L14.4123 11.1888C14.4698 11.3806 14.6442 11.5042 14.8328 11.5042C14.875 11.5042 14.9178 11.498 14.9602 11.4851C15.1925 11.4142 15.3239 11.1666 15.2537 10.9321L14.8271 9.50822C14.8291 9.50822 14.831 9.50806 14.833 9.50806C15.6811 9.50806 16.3711 10.2045 16.3711 11.0605C16.3711 11.3055 16.5678 11.504 16.8105 11.504C17.0533 11.504 17.25 11.3055 17.25 11.0605C17.25 9.71533 16.1657 8.62097 14.833 8.62097ZM9.95508 11.0605C9.95508 11.9165 9.26509 12.6129 8.41699 12.6129C7.56889 12.6129 6.87891 11.9165 6.87891 11.0605C6.87891 10.2045 7.56889 9.50806 8.41699 9.50806C8.50552 9.50806 8.59218 9.51607 8.67664 9.53064L8.02311 10.8638C7.91549 11.0833 8.00457 11.3494 8.22212 11.458C8.43967 11.5667 8.70325 11.4767 8.81087 11.2572L9.46406 9.92473C9.76583 10.2084 9.95508 10.6125 9.95508 11.0605Z" fill="white"/>
</svg>
