<svg width="126" height="64" viewBox="0 0 126 64" fill="none" xmlns="http://www.w3.org/2000/svg">
<g clip-path="url(#clip0_3373_19679)">
<path d="M59.7976 7.09384C59.4361 7.09185 59.0751 7.1213 58.7188 7.18185L60.0712 7.09384H59.7976Z" fill="#B82025"/>
<path d="M119.75 17.2469C118.835 17.7082 117.549 18.4194 115.843 19.4922C114.645 20.2446 113.64 20.9598 112.888 21.5248C113.404 24.5597 113.654 27.9801 113.654 31.7142C113.654 47.5241 109.279 57.5234 100.119 57.5234C91.9775 57.5234 86.6858 48.3802 86.6858 32.2858C86.6858 15.4284 92.3847 6.47657 100.222 6.47657C104.291 6.47657 107.378 8.40811 109.559 11.8644C110.465 11.1878 111.791 10.1535 113.045 9.00897C113.78 8.35808 114.432 7.61915 114.986 6.80891C111.604 2.41941 106.867 0 100.73 0C87.2965 0 79.4434 11.7315 79.4434 32.4932C79.6469 52.9691 86.6858 64 99.6111 64C114.265 64 121.396 53.2509 121.396 32.2034C121.396 26.5922 120.851 21.566 119.75 17.2469Z" fill="#B82025"/>
<path d="M125.513 7.90829C125.369 8.66917 124.341 10.2107 123.122 11.346C122.032 12.3555 119.613 13.2738 116.288 14.6974C114.704 15.3753 113.055 16.1242 111.518 16.9692C110.966 17.2707 110.43 17.5847 109.915 17.913C109.897 17.9269 109.878 17.9393 109.857 17.9529C109.759 18.0126 109.658 18.0772 109.562 18.1408C109.39 18.2507 109.222 18.3621 109.06 18.4803C108.087 19.1632 107.178 19.9312 106.342 20.7752C107.142 19.5814 108.346 18.1763 109.668 16.751C109.768 16.6446 109.872 16.5321 109.973 16.4257C109.995 16.4033 110.014 16.387 110.033 16.3644C110.378 15.9977 110.727 15.6314 111.076 15.2677C112.522 13.7669 113.974 12.3224 115.075 11.1731C115.657 10.59 116.204 9.97416 116.716 9.32849C117.768 7.89917 117.617 6.14633 117.45 5.27691C117.45 5.27213 117.449 5.26747 117.446 5.26322C117.444 5.25897 117.441 5.25522 117.437 5.25218C117.434 5.24914 117.429 5.24689 117.425 5.24555C117.42 5.24421 117.415 5.24382 117.411 5.2444C117.406 5.24498 117.401 5.24651 117.397 5.24891C117.393 5.25131 117.389 5.25453 117.386 5.25837C117.384 5.26221 117.382 5.26658 117.38 5.27124C117.379 5.2759 117.379 5.28074 117.38 5.28547C117.425 6.44579 117.11 7.59162 116.478 8.56647C116.152 9.06379 115.51 9.68281 114.675 10.3962C113.527 11.3784 112.014 12.5408 110.451 13.8146C110.373 13.8796 110.293 13.9445 110.213 14.0094C110.194 14.027 110.175 14.0407 110.154 14.0581C110.057 14.1407 109.957 14.2231 109.854 14.3065C109.806 14.3472 109.763 14.3871 109.715 14.4252C109.667 14.4646 109.618 14.504 109.568 14.5534C109.52 14.5916 109.466 14.6356 109.417 14.6801C108.861 15.1396 108.306 15.6233 107.769 16.1148C107.767 16.1148 107.764 16.1158 107.762 16.1175C107.76 16.1192 107.759 16.1215 107.759 16.1241C107.657 16.2152 107.555 16.3088 107.451 16.4061C107.422 16.4331 107.392 16.4574 107.367 16.4859C106.641 17.1555 105.952 17.8632 105.301 18.6061C104.489 19.5494 103.774 20.5717 103.166 21.6576C103.163 21.6586 103.161 21.6603 103.159 21.6626C103.157 21.665 103.156 21.6677 103.155 21.6707C103.134 21.7058 103.114 21.7499 103.094 21.7851C102.929 22.078 102.779 22.3695 102.636 22.659C102.085 23.7692 101.631 24.9241 101.276 26.1113C100.923 26.2008 100.583 26.3352 100.265 26.511C98.9634 27.2313 94.8613 30.5978 93.3823 32.2432C92.4556 33.2743 91.1161 33.9946 90.2451 34.3889C90.0382 34.4824 89.8579 34.557 89.7161 34.6138C89.6717 34.6337 89.632 34.6626 89.5993 34.6986C89.5666 34.7345 89.5417 34.7769 89.5262 34.8229C89.5107 34.869 89.5049 34.9177 89.5092 34.9661C89.5134 35.0145 89.5277 35.0615 89.551 35.1042C89.7482 35.4729 89.9806 35.8216 90.2451 36.1455C90.6277 36.6284 91.1089 37.0244 91.6567 37.3068C93.1811 38.0511 95.795 37.3321 97.5216 37.1007C99.2472 36.8694 100.312 37.1993 100.783 37.9537C101.791 39.5688 100.123 43.7642 97.1077 45.2099C96.231 45.6294 93.2678 46.5828 91.3428 47.2912C91.0426 47.4017 90.4745 47.606 90.023 47.7614C90.2299 48.6081 90.8838 49.8513 91.3553 50.601C93.5412 54.0773 96.3895 56.0722 100.17 56.0722C103.031 56.0722 105.52 54.826 107.297 52.9433C108.557 51.568 109.454 49.8998 109.906 48.0903C110.79 44.6226 110.342 42.3987 110.045 40.8145C109.764 39.3226 109.327 37.8641 108.742 36.463C107.73 33.8967 106.842 32.6007 105.817 30.829C105.253 29.8573 105.01 29.5539 105.548 29.1003C105.776 28.9082 106.017 29.0839 106.275 29.1243C107.35 29.2898 108.461 29.3581 109.448 28.7464C109.748 28.5484 110.011 28.301 110.228 28.0148C110.531 27.6344 110.79 27.2073 111.04 26.8459C111.201 26.6133 111.2 26.4175 110.922 26.2709C110.708 26.1584 110.475 26.0472 110.228 25.9461C109.126 25.4924 107.755 25.2207 106.668 25.7401C106.062 26.0295 105.671 26.3492 105.278 26.6082C105.213 26.6513 105.147 26.6902 105.08 26.7295C106.324 25.0613 107.68 23.4788 109.138 21.9929C109.181 21.948 109.225 21.9032 109.279 21.8541C109.372 21.7611 109.476 21.6651 109.581 21.5667C109.602 21.5492 109.622 21.5317 109.641 21.5129C110.28 20.9435 110.949 20.4068 111.643 19.9049C113.114 18.8268 114.867 17.6942 116.59 16.6214C119.71 14.6777 121.853 13.4496 122.932 12.5508C124.429 11.3011 125.565 8.87793 125.593 7.91937C125.595 7.90874 125.592 7.89797 125.585 7.88942C125.579 7.88087 125.569 7.87524 125.559 7.87377C125.553 7.87304 125.548 7.87336 125.543 7.8747C125.538 7.87604 125.533 7.87838 125.529 7.88159C125.52 7.88806 125.514 7.89767 125.513 7.90829Z" fill="#B82025"/>
<path d="M20.8711 44.5371C20.8711 47.8867 19.2236 49.5615 15.9287 49.5615H5.12109V44.5576H13.8984C15.1016 44.5576 15.7031 43.9766 15.7031 42.8145V39H9.22266C6.50195 39 5.1416 37.7559 5.1416 35.2676V27.7412C5.1416 25.2256 6.50195 23.9678 9.22266 23.9678H16.7695C19.5039 23.9678 20.8711 25.2256 20.8711 27.7412V44.5371ZM15.6621 32.7041V30.1816C15.6621 29.375 15.2109 28.9717 14.3086 28.9717H11.6631C10.7471 28.9717 10.2891 29.375 10.2891 30.1816V32.7041C10.2891 33.5518 10.7471 33.9756 11.6631 33.9756H14.3086C15.2109 33.9756 15.6621 33.5518 15.6621 32.7041Z" fill="#B82025"/>
<path d="M35.6367 44.5371C35.6367 46.041 35.2334 47.2441 34.4268 48.1465C33.5791 49.0898 32.4102 49.5615 30.9199 49.5615H23.7422V44.291L28.1924 44.2705C29.0947 44.2568 29.7168 44.0107 30.0586 43.5322C30.332 43.1357 30.4688 42.4658 30.4688 41.5225V23.9678H35.6367V44.5371Z" fill="#B82025"/>
<path d="M62.9326 28.9512H57.498C55.9941 28.9512 55.2422 29.7031 55.2422 31.207V34.0166H59.1797C60.6836 34.0166 61.4355 34.9121 61.4355 36.7031V39C61.4355 41.8848 60.3076 44.3799 58.0518 46.4854C55.8506 48.5361 53.2939 49.5615 50.3818 49.5615C47.251 49.5615 44.7148 48.6592 42.7734 46.8545C40.791 45.0088 39.7998 42.5342 39.7998 39.4307V23.9883H44.9473V39.2871C44.9473 40.9277 45.4668 42.1992 46.5059 43.1016C47.5039 43.9492 48.8369 44.373 50.5049 44.373C52.2275 44.373 53.6768 43.915 54.8525 42.999C56.1514 42.001 56.8008 40.668 56.8008 39H54.2168C51.4824 39 50.1152 37.7422 50.1152 35.2266V27.7412C50.1152 25.2119 51.4824 23.9473 54.2168 23.9473H62.9326V28.9512Z" fill="#B82025"/>
<path d="M74.6572 19.4355C74.6572 20.1328 74.4043 20.7344 73.8984 21.2402C73.3926 21.7461 72.791 21.999 72.0938 21.999C71.3828 21.999 70.7744 21.7461 70.2686 21.2402C69.7627 20.7344 69.5098 20.1328 69.5098 19.4355C69.5098 18.7246 69.7627 18.123 70.2686 17.6309C70.7744 17.1387 71.3828 16.8926 72.0938 16.8926C72.8047 16.8926 73.4062 17.1387 73.8984 17.6309C74.4043 18.123 74.6572 18.7246 74.6572 19.4355ZM74.6777 44.5371C74.6777 46.041 74.2744 47.2441 73.4678 48.1465C72.6201 49.0898 71.4512 49.5615 69.9609 49.5615H62.7832V44.291L67.2334 44.2705C68.1357 44.2568 68.7578 44.0107 69.0996 43.5322C69.373 43.1357 69.5098 42.4658 69.5098 41.5225V23.9678H74.6777V44.5371Z" fill="#B82025"/>
</g>
<defs>
<clipPath id="clip0_3373_19679">
<rect width="125.594" height="64" fill="#B82025"/>
</clipPath>
</defs>
</svg>
