<svg width="24" height="24" viewBox="0 0 24 24" fill="none" xmlns="http://www.w3.org/2000/svg">
<path d="M2.49951 9.6C2.49951 4.43051 6.59047 0.25 11.6245 0.25C16.6586 0.25 20.7495 4.43051 20.7495 9.6C20.7495 12.8066 19.414 15.5538 17.5797 17.9066C15.7928 20.1985 13.5448 22.101 11.6245 23.6767C9.70427 22.101 7.45621 20.1985 5.66933 17.9066C3.835 15.5538 2.49951 12.8066 2.49951 9.6Z" fill="#E9D944" stroke="#666666" stroke-width="0.5"/>
<path d="M15.304 6.317H13.3388C13.0233 5.68495 12.3738 5.25 11.625 5.25C10.8761 5.25 10.2266 5.68495 9.91111 6.317H7.94596C7.6997 6.317 7.5 6.51813 7.5 6.76622C7.5 7.01436 7.6997 7.21549 7.94596 7.21549H9.70829C9.71001 7.31622 9.71944 7.41504 9.73595 7.51149C8.88125 7.68608 8.23581 8.44885 8.23581 9.36071V14.6394C8.23581 15.6685 9.05798 16.5073 10.0753 16.5254V17.2675C10.0753 18.085 10.7355 18.75 11.547 18.75H11.703C12.5145 18.75 13.1746 18.085 13.1746 17.2675V16.5254C14.192 16.5073 15.0141 15.6685 15.0141 14.6394V9.36067C15.0141 8.44881 14.3688 7.68604 13.514 7.51145C13.5306 7.41499 13.54 7.31617 13.5417 7.21545H15.304C15.5503 7.21545 15.75 7.01431 15.75 6.76618C15.75 6.51809 15.5503 6.317 15.304 6.317ZM11.625 6.1485C12.1906 6.1485 12.6506 6.612 12.6506 7.18177C12.6506 7.75154 12.1906 8.21504 11.625 8.21504C11.0594 8.21504 10.5993 7.75154 10.5993 7.18177C10.5993 6.612 11.0594 6.1485 11.625 6.1485ZM12.2827 17.2675C12.2827 17.5895 12.0227 17.8515 11.703 17.8515H11.5469C11.2272 17.8515 10.9672 17.5895 10.9672 17.2675V14.8864C10.9672 14.5644 11.2272 14.3024 11.5469 14.3024H11.703C12.0227 14.3024 12.2827 14.5644 12.2827 14.8864V17.2675ZM13.1411 8.37226C13.6821 8.37226 14.1222 8.81562 14.1222 9.36062V14.6393C14.1222 15.173 13.7001 15.6089 13.1746 15.6268V14.8864C13.1746 14.069 12.5144 13.4039 11.703 13.4039H11.5469C10.7355 13.4039 10.0753 14.069 10.0753 14.8864V15.6268C9.54983 15.609 9.12769 15.173 9.12769 14.6393V9.36067C9.12769 8.81567 9.56779 8.37231 10.1087 8.37231H10.1165C10.4678 8.82312 11.0132 9.11358 11.625 9.11358C12.2367 9.11358 12.7821 8.82312 13.1335 8.37231H13.1411V8.37226Z" fill="#666666"/>
</svg>
