<svg width="48" height="49" viewBox="0 0 48 49" fill="none" xmlns="http://www.w3.org/2000/svg">
<g filter="url(#filter0_d_3047_20128)">
<rect x="4" y="4" width="40" height="40" rx="16" fill="white"/>
</g>
<path fill-rule="evenodd" clip-rule="evenodd" d="M19 15C19.3315 15 19.6495 15.1317 19.8839 15.3661C20.1183 15.6005 20.25 15.9185 20.25 16.25V18.75C20.25 19.0815 20.1183 19.3995 19.8839 19.6339C19.6495 19.8683 19.3315 20 19 20C18.6685 20 18.3505 19.8683 18.1161 19.6339C17.8817 19.3995 17.75 19.0815 17.75 18.75V16.25C17.75 15.9185 17.8817 15.6005 18.1161 15.3661C18.3505 15.1317 18.6685 15 19 15V15Z" stroke="#575757" stroke-linecap="round" stroke-linejoin="round"/>
<path d="M34 17.5H20.25" stroke="#575757" stroke-linecap="round" stroke-linejoin="round"/>
<path d="M17.75 17.5H14" stroke="#575757" stroke-linecap="round" stroke-linejoin="round"/>
<path fill-rule="evenodd" clip-rule="evenodd" d="M19 27.5C19.3315 27.5 19.6495 27.6317 19.8839 27.8661C20.1183 28.1005 20.25 28.4185 20.25 28.75V31.25C20.25 31.5815 20.1183 31.8995 19.8839 32.1339C19.6495 32.3683 19.3315 32.5 19 32.5C18.6685 32.5 18.3505 32.3683 18.1161 32.1339C17.8817 31.8995 17.75 31.5815 17.75 31.25V28.75C17.75 28.4185 17.8817 28.1005 18.1161 27.8661C18.3505 27.6317 18.6685 27.5 19 27.5Z" stroke="#575757" stroke-linecap="round" stroke-linejoin="round"/>
<path d="M34 30H20.25" stroke="#575757" stroke-linecap="round" stroke-linejoin="round"/>
<path d="M17.75 30H14" stroke="#575757" stroke-linecap="round" stroke-linejoin="round"/>
<path fill-rule="evenodd" clip-rule="evenodd" d="M29 21.25C29.3315 21.25 29.6495 21.3817 29.8839 21.6161C30.1183 21.8505 30.25 22.1685 30.25 22.5V25C30.25 25.3315 30.1183 25.6495 29.8839 25.8839C29.6495 26.1183 29.3315 26.25 29 26.25C28.6685 26.25 28.3505 26.1183 28.1161 25.8839C27.8817 25.6495 27.75 25.3315 27.75 25V22.5C27.75 22.1685 27.8817 21.8505 28.1161 21.6161C28.3505 21.3817 28.6685 21.25 29 21.25V21.25Z" stroke="#575757" stroke-linecap="round" stroke-linejoin="round"/>
<path d="M27.75 23.75H14" stroke="#575757" stroke-linecap="round" stroke-linejoin="round"/>
<path d="M34 23.75H30.25" stroke="#575757" stroke-linecap="round" stroke-linejoin="round"/>
<defs>
<filter id="filter0_d_3047_20128" x="0.5" y="0.5" width="47" height="47" filterUnits="userSpaceOnUse" color-interpolation-filters="sRGB">
<feFlood flood-opacity="0" result="BackgroundImageFix"/>
<feColorMatrix in="SourceAlpha" type="matrix" values="0 0 0 0 0 0 0 0 0 0 0 0 0 0 0 0 0 0 127 0" result="hardAlpha"/>
<feMorphology radius="0.5" operator="dilate" in="SourceAlpha" result="effect1_dropShadow_3047_20128"/>
<feOffset/>
<feGaussianBlur stdDeviation="1.5"/>
<feComposite in2="hardAlpha" operator="out"/>
<feColorMatrix type="matrix" values="0 0 0 0 0 0 0 0 0 0 0 0 0 0 0 0 0 0 0.25 0"/>
<feBlend mode="normal" in2="BackgroundImageFix" result="effect1_dropShadow_3047_20128"/>
<feBlend mode="normal" in="SourceGraphic" in2="effect1_dropShadow_3047_20128" result="shape"/>
</filter>
</defs>
</svg>
